<svg width="103" height="148" viewBox="0 0 103 148" fill="none" xmlns="http://www.w3.org/2000/svg">
<rect width="103" height="148"/>
<path d="M-219.109 -1087.19L504.979 -397.868L-482.989 -236.861L-219.109 -1087.19Z" fill="#9BA8AB" fill-opacity="0.08"/>
<path d="M65.9737 51.3656C57.2663 35.2725 63.2597 15.1789 79.3604 6.48542C95.4611 -2.20807 115.572 3.79055 124.28 19.8837C132.987 35.9769 126.994 56.0704 110.893 64.7639C94.7922 73.4574 74.6812 67.4588 65.9737 51.3656Z" fill="#253745"/>
<path d="M64.8868 49.9057C56.1793 33.8125 62.1727 13.719 78.2735 5.02547C94.3742 -3.66802 114.485 2.33059 123.193 18.4238C131.9 34.5169 125.907 54.6105 109.806 63.3039C93.7053 71.9974 73.5943 65.9988 64.8868 49.9057Z" fill="#CCD0CF"/>
<mask id="mask0_0_1" style="mask-type:luminance" maskUnits="userSpaceOnUse" x="60" y="1" width="68" height="67">
<path d="M64.8937 49.9047C56.1862 33.8115 62.1796 13.718 78.2803 5.02449C94.381 -3.669 114.492 2.32961 123.2 18.4228C131.907 34.5159 125.914 54.6095 109.813 63.303C93.7122 71.9965 73.6011 65.9978 64.8937 49.9047Z" fill="white"/>
</mask>
<g mask="url(#mask0_0_1)">
<path opacity="0.45" d="M111.662 67.5581L92.7685 -4.04885L62.6779 7.18905L100.297 69.5561L111.662 67.5581Z" fill="#FAFAFA"/>
<path opacity="0.45" d="M113.915 65.3797L95.2092 -3.13975L99.3342 -1.60423L114.814 62.9659L113.915 65.3797Z" fill="#FAFAFA"/>
<path opacity="0.45" d="M97.4543 68.4985L64.9019 14.4922L58.8918 21.0888L95.2739 69.2273L97.4543 68.4985Z" fill="#FAFAFA"/>
</g>
<path d="M71.9194 46.1133C65.3095 33.8969 69.8591 18.6438 82.0812 12.0445C94.3034 5.44521 109.57 9.9988 116.18 22.2152C122.79 34.4316 118.24 49.6847 106.018 56.284C93.7957 62.8833 78.5293 58.3297 71.9194 46.1133Z" fill="#253745"/>
<path opacity="0.8" d="M83.4923 53.2141C96.8081 57.1859 110.821 49.6199 114.789 36.3156C116.703 29.9004 115.925 23.325 113.121 17.787C118.507 24.0608 120.695 32.8498 118.158 41.3574C114.189 54.6616 100.177 62.2277 86.8608 58.2559C79.9658 56.1993 74.6155 51.4497 71.6034 45.5025C74.641 49.0403 78.6915 51.7822 83.4923 53.2141Z" fill="#15212B"/>
<path d="M101.219 10.0735C105.941 11.4818 109.937 14.1572 112.956 17.6092C110.146 14.8901 106.666 12.784 102.66 11.5892C89.3442 7.61743 75.3316 15.1835 71.3632 28.4877C68.802 37.0745 71.0554 45.9491 76.5525 52.2341C70.0225 45.9161 67.1481 36.274 69.9227 26.972C73.891 13.6678 87.9036 6.10171 101.219 10.0735Z" fill="#11212D"/>
<path d="M87.8589 39.6614C84.8154 36.2447 85.1188 31.0109 88.5365 27.9712C91.9542 24.9316 97.192 25.2373 100.235 28.6539C103.279 32.0706 102.976 37.3044 99.5578 40.3441C96.1401 43.3837 90.9023 43.078 87.8589 39.6614Z" fill="#4A5C6A"/>
<path d="M88.5093 37.1501C86.8568 34.096 87.9942 30.2828 91.0497 28.6329C94.1053 26.9831 97.9219 28.1215 99.5743 31.1756C101.227 34.2297 100.089 38.043 97.0339 39.6928C93.9783 41.3426 90.1617 40.2042 88.5093 37.1501Z" fill="#CCD0CF"/>
<path d="M90.2041 33.6694C90.4784 31.5515 92.419 30.0577 94.5385 30.3329C96.658 30.608 98.1539 32.5479 97.8795 34.6658C97.6052 36.7836 95.6646 38.2774 93.5451 38.0023C91.4255 37.7272 89.9297 35.7872 90.2041 33.6694Z" fill="#4A5C6A"/>
<path d="M74.3088 128.314C74.2384 128.55 74.1848 128.797 74.1516 129.05C73.5262 133.794 78.9965 141.725 85.1018 143.546C87.6092 144.294 89.897 144.518 91.9576 144.366C98.6171 143.871 102.846 139.448 104.004 136.035C104.434 134.77 103.514 133.603 101.973 132.581C98.0784 129.996 90.2085 128.325 90.2085 128.325C90.2085 128.325 88.5272 127.791 86.2529 127.265L86.2473 127.264C81.8369 126.247 75.2113 125.275 74.3057 128.311L74.3088 128.314Z" fill="#11212D"/>
<path d="M108.624 131.356C108.624 131.356 107.752 133.649 107.308 134.179C106.867 134.71 104.609 135.928 104.01 136.034C103.411 136.138 97.4549 131.808 90.5064 129.641C83.5579 127.475 74.3134 128.31 74.3134 128.31L72.8645 124.283L73.1537 120.774L108.625 131.354L108.624 131.356Z" fill="#11212D"/>
<path d="M73.7346 127.459C73.6642 127.695 73.6106 127.942 73.5773 128.195C72.9525 132.937 78.4223 140.87 84.5276 142.691C87.035 143.439 89.3228 143.663 91.3834 143.511C98.0429 143.016 102.272 138.593 103.43 135.18C103.86 133.915 102.94 132.748 101.399 131.726C97.5042 129.141 89.6342 127.47 89.6342 127.47C89.6342 127.47 87.953 126.936 85.6787 126.41L85.6731 126.409C81.2627 125.392 74.6371 124.42 73.7314 127.456L73.7346 127.459Z" fill="#253745"/>
<path d="M73.7227 127.459C73.6523 127.695 73.5988 127.942 73.5655 128.195C74.2638 128.393 75.0156 128.608 75.8225 128.826C80.4729 130.109 87.8711 136.204 91.3716 143.511C98.031 143.017 102.26 138.593 103.418 135.18C103.848 133.915 102.928 132.748 101.387 131.726L85.6668 126.411L85.6613 126.409C81.2508 125.393 74.6252 124.42 73.7196 127.456L73.7227 127.459Z" fill="#253745"/>
<path d="M86.2678 141.038C83.5787 140.236 82.0484 137.408 82.8498 134.721C83.6512 132.034 86.4808 130.506 89.17 131.308C91.8591 132.111 93.3894 134.939 92.588 137.626C91.7866 140.312 88.9569 141.84 86.2678 141.038Z" fill="#CCD0CF"/>
<path d="M85.1864 140.05C87.8747 140.852 90.7049 139.325 91.5066 136.637C91.9025 135.31 91.7296 133.95 91.1279 132.815C90.9715 132.517 90.6894 132.324 90.7448 132.267C90.802 132.209 91.1134 132.385 91.3471 132.625C92.5942 133.9 93.1302 135.795 92.5842 137.625C91.7831 140.311 88.9541 141.84 86.264 141.038C85.8471 140.913 85.4584 140.741 85.1006 140.526C84.5913 140.22 84.4848 139.977 84.5139 139.879C84.5431 139.782 84.6716 139.896 85.1846 140.049L85.1864 140.05Z" fill="#4A5C6A"/>
<path opacity="0.6" d="M89.17 131.308C91.8582 132.11 93.3897 134.938 92.588 137.626C92.1553 139.076 91.1274 140.185 89.852 140.776C88.0731 137.963 85.7953 135.435 83.457 133.413C84.6519 131.569 86.9572 130.65 89.1694 131.31L89.17 131.308Z" fill="#E1E3E3"/>
<path d="M108.036 130.504C108.036 130.504 107.163 132.797 106.72 133.328C106.276 133.858 104.02 135.076 103.422 135.183C102.822 135.287 96.8665 130.957 89.918 128.79C82.9696 126.623 73.725 127.459 73.725 127.459L72.2761 123.431L72.5654 119.922L108.037 130.502L108.036 130.504Z" fill="#11212D"/>
<path d="M44.8333 72.9457L51.0068 74.7871L47.5779 86.2829L41.4044 84.4415L44.8333 72.9457Z" fill="#11212D"/>
<path d="M41.4747 85.5364C40.5721 85.767 37.3547 84.3075 37.3547 84.3075L41.3566 70.8908L45.4766 72.1197C45.4766 72.1197 42.3768 85.3076 41.4747 85.5364Z" fill="#11212D"/>
<path d="M0.424526 87.5608L18.0013 87.4456C18.0013 87.4456 35.8037 87.4901 36.9608 86.3657C38.118 85.2414 43.4168 69.632 42.9924 68.3672C42.5661 67.1018 25.5684 53.9457 25.5684 53.9457L13.4314 43.9539L0.424526 87.5608Z" fill="#11212D"/>
<path d="M45.269 71.456L41.8406 82.95L48.0142 84.7914L51.5596 73.5853L45.269 71.456Z" fill="#253745"/>
<path d="M43.4824 77.444L41.84 82.9504L48.0136 84.7918L49.728 79.0439C46.987 79.0253 44.7045 78.0755 43.4824 77.444Z" fill="#11212D"/>
<path d="M40.1144 75.9981C38.5798 81.1432 37.872 82.5661 37.872 82.5661C37.872 82.5661 40.6549 84.1691 41.992 83.795C42.6699 83.6038 43.8249 80.3108 44.7301 77.0336L44.7329 77.0243C45.0674 75.8153 45.3691 74.6084 45.5984 73.5567C45.9711 71.8491 46.1523 70.5681 45.9933 70.3802C45.4574 69.7586 41.8733 69.1513 41.8733 69.1513C41.8733 69.1513 41.8147 69.5433 41.6262 70.3704C41.3815 71.4537 40.9245 73.2887 40.1157 76.0005L40.1144 75.9981Z" fill="#253745"/>
<path d="M13.4285 43.9519L0.421591 87.5588C0.421591 87.5588 34.9274 84.8387 35.8685 84.5734C36.0924 84.5097 36.5247 83.5184 37.0525 82.0318C38.2038 78.7918 39.8066 73.1893 40.6366 69.7532C40.8476 68.8706 41.0102 68.1301 41.1025 67.6117C41.1792 67.1929 41.2067 66.912 41.1774 66.815C41.1746 66.8041 41.1726 66.7975 41.1726 66.7975C40.8427 66.0848 13.4298 43.9543 13.4298 43.9543L13.4285 43.9519Z" fill="#253745"/>
<path d="M9.16571 58.2252L0.416941 87.5565C0.416941 87.5565 34.9228 84.8363 35.8638 84.571C36.0878 84.5073 36.5201 83.5161 37.0479 82.0294C28.0942 80.6034 10.601 74.7331 9.16571 58.2252Z" fill="#1C2D3A"/>
<path d="M13.4291 43.9518L11.1301 51.6593C20.8111 54.9985 35.4101 65.7288 40.6378 69.7512C40.8488 68.8686 41.0114 68.1282 41.1037 67.6097C41.1804 67.1909 41.2079 66.9101 41.1786 66.813C41.1758 66.8021 41.1738 66.7955 41.1738 66.7955C40.8439 66.0828 13.4309 43.9523 13.4309 43.9523L13.4291 43.9518Z" fill="#4A5C6A"/>
<path d="M37.875 82.5674C37.875 82.5674 40.6578 84.1703 41.995 83.7963C42.6729 83.605 43.8279 80.312 44.7331 77.0348L44.7358 77.0256C42.898 77.9127 41.3195 77.0886 40.1192 75.9998C38.5846 81.1449 37.8768 82.5679 37.8768 82.5679L37.875 82.5674Z" fill="#11212D"/>
<path d="M41.8647 69.1524C41.8647 69.1524 41.8061 69.5445 41.6176 70.3715C43.0367 70.8008 44.8077 71.5118 45.5898 73.5578C45.9625 71.8502 46.1437 70.5693 45.9847 70.3813C45.4488 69.7598 41.8647 69.1524 41.8647 69.1524Z" fill="#4A5C6A"/>
<path d="M48.6027 81.7514C47.0662 86.9902 45.8293 91.5075 45.9473 91.7113C46.0605 91.8976 47.2425 92.3606 48.6874 92.8378C49.7071 93.178 50.8566 93.5209 51.8462 93.7799C53.0847 94.1072 54.0827 94.3045 54.2926 94.2005C54.2997 94.1966 54.3117 94.1901 54.3161 94.1754C55.1087 93.2494 62.3663 68.5604 62.1346 67.9091C61.899 67.2507 54.3327 65.04 53.7876 65.4194C53.4688 65.6395 50.75 74.4041 48.6009 81.7508L48.6027 81.7514Z" fill="#CCD0CF"/>
<path d="M48.9855 116.067C49.287 117.205 132.835 141.854 133.701 140.906C134.567 139.958 150.804 87.3653 150.357 86.6077C150.326 86.5563 149.84 85.1626 149.105 84.9234C138.919 81.6081 66.0882 61.7394 65.3582 61.9974C65.0053 62.123 62.0075 73.3118 58.4663 85.1033C54.8811 97.0423 49.7967 109.622 48.2475 113.954C47.9244 114.855 48.9558 115.958 48.9842 116.065L48.9855 116.067Z" fill="#11212D"/>
<path d="M48.4985 113.66C48.8 114.798 132.004 139.774 132.869 138.826C133.735 137.877 149.346 85.843 148.899 85.0853C148.452 84.3277 65.3102 59.6411 64.5279 59.9196C64.175 60.0452 61.1772 71.234 57.636 83.0255C53.304 97.4478 48.3315 113.034 48.4985 113.66Z" fill="#253745"/>
<path d="M51.5246 112.798C51.6143 112.935 52.9573 113.424 55.2322 114.177L55.2377 114.179C70.7407 119.319 129.521 136.609 130.805 136.446C130.816 136.443 130.826 136.442 130.834 136.434C130.854 136.424 130.881 136.4 130.911 136.373C131.71 135.491 134.475 126.983 137.413 117.202C137.543 116.747 137.68 116.288 137.823 115.827L137.859 115.707C139.065 111.662 140.284 107.455 141.4 103.52C143.313 96.7549 144.904 90.8016 145.563 87.8706C145.816 86.7377 145.931 86.0572 145.867 85.9478C145.596 85.4615 127.173 79.7254 108.156 74.027L108.132 74.0198C106.873 73.6384 105.611 73.262 104.351 72.8861C85.4853 67.2589 67.1836 62.0108 66.5868 62.3005C66.2611 62.4563 65.0123 65.9763 63.3542 71.0905L63.3487 71.109C63.3228 71.1956 63.2926 71.2769 63.2684 71.358C58.6461 85.6757 51.0026 112.022 51.5228 112.798L51.5246 112.798Z" fill="#CCD0CF"/>
<path d="M55.2376 114.177L55.2432 114.178C70.7461 119.318 129.526 136.608 130.81 136.445C130.821 136.442 130.832 136.442 130.84 136.434C130.859 136.424 130.886 136.4 130.916 136.372C131.716 135.491 134.481 126.983 137.418 117.201C137.548 116.746 137.685 116.287 137.829 115.826L137.864 115.706C139.071 111.662 140.289 107.454 141.405 103.519C143.318 96.7545 144.909 90.8012 145.568 87.8702C145.342 87.9072 144.961 88.4981 144.331 90.4701C142.686 95.5925 134.344 124.483 133.918 126.12C133.491 127.76 131.585 133.308 131.159 134.315C130.732 135.322 130.383 135.649 130.024 135.578C129.667 135.508 113.832 131.038 110.228 130.216C106.623 129.393 86.0763 122.95 83.9725 122.384C81.8687 121.819 62.4056 115.763 59.9701 115.036C57.5346 114.31 54.4259 113.294 55.2395 114.177L55.2376 114.177Z" fill="#E1E3E3"/>
<path d="M68.7313 66.9115C68.0167 67.2866 55.8454 110.113 55.8454 110.113L128.657 131.831C128.657 131.831 141.786 89.0453 141.543 88.6294C141.299 88.2153 69.4459 66.5365 68.7313 66.9115Z" fill="#253745"/>
<path d="M58.2481 101.715C58.2481 101.715 55.557 109.276 55.8472 110.115C56.1842 111.087 127.884 132.7 128.659 131.833C129.434 130.966 135.591 109.07 135.591 109.07C124.667 112.416 113.965 108.845 102.963 109.159C95.0232 109.386 62.706 103.751 58.2457 101.716L58.2481 101.715Z" fill="#2F4251"/>
<path d="M70.2461 72.2811C69.2535 71.9851 68.6887 70.9412 68.9845 69.9495C69.2803 68.9579 70.3247 68.394 71.3172 68.69C72.3097 68.9861 72.8745 70.03 72.5787 71.0216C72.2829 72.0132 71.2386 72.5771 70.2461 72.2811Z" fill="#CCD0CF"/>
<path d="M69.8712 71.6045C70.8639 71.9006 71.9081 71.3368 72.2039 70.345C72.3116 69.9837 72.3034 69.6139 72.203 69.2768C72.5981 69.7439 72.7585 70.392 72.571 71.0206C72.2751 72.0124 71.231 72.5762 70.2383 72.2801C69.6092 72.0924 69.1524 71.6029 68.9795 71.0173C69.2068 71.2859 69.5102 71.4948 69.8736 71.6032L69.8712 71.6045Z" fill="#4A5C6A"/>
<path d="M69.9481 69.2378C69.6566 69.4539 69.519 69.7602 69.6375 69.922C69.7584 70.0825 70.0913 70.0373 70.3816 69.8187C70.6731 69.6026 70.8106 69.2963 70.6921 69.1345C70.5736 68.9727 70.2383 69.0192 69.9481 69.2378Z" fill="#CCD0CF"/>
<path d="M59.4282 108.534C58.4357 108.238 57.8709 107.194 58.1666 106.202C58.4624 105.21 59.5068 104.646 60.4993 104.942C61.4918 105.239 62.0566 106.282 61.7608 107.274C61.465 108.266 60.4207 108.83 59.4282 108.534Z" fill="#CCD0CF"/>
<path d="M59.0602 107.854C60.0528 108.15 61.097 107.586 61.3928 106.594C61.5012 106.231 61.4924 105.863 61.392 105.526C61.7871 105.993 61.9474 106.641 61.7599 107.27C61.4641 108.261 60.4199 108.825 59.4273 108.529C58.7981 108.341 58.3414 107.852 58.1684 107.266C58.3958 107.535 58.6991 107.744 59.0626 107.852L59.0602 107.854Z" fill="#4A5C6A"/>
<path d="M56.2142 65.7676L48.189 92.6729L51.8533 93.7859L51.8921 93.7975L59.9238 66.8701L56.2142 65.7676Z" fill="#253745"/>
<path d="M156.041 104.512C156.235 103.948 156.509 103.287 156.537 102.701C156.547 102.499 156.544 101.728 156.484 101.551C156.29 100.989 155.692 99.9516 155.692 99.9516C153.894 99.4156 127.847 92.6782 127.847 92.6782C127.847 92.6782 128.168 91.0715 125.842 90.0926C123.516 89.1138 69.6934 73.3911 69.6934 73.3911L64.7897 86.2477C64.7897 86.2477 65.015 88.6516 65.5427 89.7184C66.0722 90.7857 66.4444 91.0332 67.9919 91.537C74.3315 93.5965 90.0759 98.6681 95.2039 99.5894C101.585 100.736 118.807 100.766 124.718 102.529C130.63 104.292 150.112 110.264 151.33 110.627C152.548 110.99 153.963 111.007 154.53 109.727C155.095 108.444 156.041 104.512 156.041 104.512Z" fill="#11212D"/>
<path d="M65.1303 87.7065C65.658 88.7732 66.032 89.0213 67.5814 89.5256C73.921 91.5852 89.6648 96.6586 94.7965 97.581C101.177 98.7274 118.398 98.7568 124.311 100.521C130.224 102.284 149.702 108.253 150.919 108.616C152.137 108.979 153.308 109.25 153.873 107.967C154.23 107.164 154.831 105.216 155.23 103.879C155.467 103.083 155.631 102.501 155.631 102.501C155.892 101.744 156.497 99.7163 154.702 99.1808C152.907 98.6453 127.438 90.6711 127.438 90.6711C127.438 90.6711 127.758 89.0644 125.432 88.0855C123.404 87.2336 84.2422 75.6209 73.6861 72.5346C72.1225 72.0782 71.1665 71.6525 69.9841 72.1811C68.7957 72.7099 68.5108 73.9278 68.5108 73.9278L67.2511 78.097L65.3461 84.3963C65.3461 84.3963 64.6026 86.6397 65.1321 87.707L65.1303 87.7065Z" fill="#253745"/>
<path d="M67.25 78.0953C67.4345 78.4133 67.6704 78.6462 67.9724 78.7584C70.3016 79.6258 79.3128 83.486 85.765 85.4105C92.2171 87.335 101.705 89.0308 111.256 90.6589C120.804 92.2926 125.133 93.3688 126.833 94.2956C128.538 95.2296 132.949 96.6459 140.567 98.4763C145.897 99.757 151.209 101.96 155.23 103.874C155.467 103.077 155.631 102.496 155.631 102.496C155.892 101.739 156.497 99.7109 154.702 99.1754C152.907 98.64 127.438 90.6657 127.438 90.6657C127.438 90.6657 127.758 89.059 125.432 88.0802C123.404 87.2282 84.2422 75.6156 73.6862 72.5292C72.1225 72.0728 71.1665 71.6471 69.9841 72.1758C68.7957 72.7046 68.5108 73.9224 68.5108 73.9224L67.2511 78.0916L67.25 78.0953Z" fill="#4A5C6A"/>
<path d="M69.5928 87.0744C67.6065 83.4033 68.9736 78.8197 72.6465 76.8366C76.3193 74.8535 80.9069 76.2219 82.8932 79.8929C84.8795 83.564 83.5123 88.1477 79.8395 90.1308C76.1667 92.1139 71.5791 90.7455 69.5928 87.0744Z" fill="#182631" fill-opacity="0.0705882"/>
<path d="M69.2236 86.2849C67.2373 82.6138 68.6045 78.0302 72.2773 76.047C75.9501 74.0639 80.5378 75.4323 82.5241 79.1034C84.5104 82.7745 83.1432 87.3581 79.4704 89.3412C75.7976 91.3244 71.2099 89.956 69.2236 86.2849Z" fill="#CCD0CF"/>
<path d="M78.0156 75.4544C79.7112 75.9601 81.0922 77.0084 82.0339 78.3512C82.4105 78.8871 82.5006 79.2452 82.4065 79.3517C82.3125 79.4581 82.095 79.3993 81.6123 79.1248C81.1295 78.8503 80.61 78.6251 80.0547 78.4595C76.0527 77.2658 71.8425 79.5391 70.6498 83.5376C70.3562 84.522 70.2756 85.5197 70.379 86.48C70.4467 87.1085 70.4943 87.3395 70.3962 87.4528C70.3 87.5666 70.078 87.5766 69.7748 87.165C68.4175 85.3228 67.9082 82.8945 68.6126 80.533C69.8052 76.5345 74.0155 74.2612 78.0174 75.4549L78.0156 75.4544Z" fill="#E1E3E3"/>
<path d="M69.6308 82.3265C69.8304 78.8824 72.7864 76.2535 76.2331 76.4546C79.6798 76.6557 82.3121 79.6108 82.1124 83.0549C81.9128 86.499 78.9569 89.128 75.5102 88.9268C72.0634 88.7257 69.4312 85.7707 69.6308 82.3265Z" fill="#CCD0CF"/>
<path d="M63.2737 71.3588C62.7469 73.1248 62.7933 74.7004 63.3292 73.5032C63.8914 72.2516 66.6588 64.5634 66.8138 64.0436C66.9689 63.5237 67.5433 63.5043 68.6374 63.642C69.7316 63.7796 99.2476 72.1098 101.831 72.9746C104.294 73.7975 109.666 74.565 108.159 74.0271L108.135 74.02C108.065 73.993 107.982 73.9682 107.886 73.9396L104.354 72.8862C85.4887 67.2591 67.1871 62.0109 66.5903 62.3007C66.2646 62.4564 65.0157 65.9764 63.3577 71.0907L63.3522 71.1091C63.3263 71.1958 63.296 71.2771 63.2718 71.3582L63.2737 71.3588Z" fill="#CCD0CF"/>
<path d="M59.1373 105.487C58.8457 105.704 58.7082 106.01 58.8267 106.172C58.9476 106.332 59.2805 106.287 59.5708 106.068C59.8623 105.852 59.9998 105.546 59.8813 105.384C59.7604 105.224 59.4275 105.269 59.1373 105.487Z" fill="#CCD0CF"/>
<path d="M48.6067 81.7515C47.0702 86.9903 45.8333 91.5076 45.9513 91.7114C46.0645 91.8977 47.2464 92.3607 48.6914 92.8379L51.8501 93.78C53.0887 94.1073 54.0867 94.3046 54.2965 94.2006C54.3037 94.1967 54.3157 94.1902 54.3201 94.1755L56.6075 86.5067C55.8456 86.3799 55.0163 86.1425 54.1916 85.8223C52.9082 85.329 51.6338 84.6438 50.5891 83.8484C49.729 83.2024 49.0347 82.4854 48.6072 81.7496L48.6067 81.7515Z" fill="#B4B7B6"/>
<path d="M50.7763 83.9874L48.1871 92.6682L51.8532 93.7818L51.892 93.7934L54.2685 85.826C53.0346 85.3415 51.8144 84.7106 50.7787 83.9861L50.7763 83.9874Z" fill="#11212D"/>
<path d="M60.9967 70.5796C60.8306 70.3955 53.4107 68.0779 53.0781 68.1353C52.7456 68.1927 52.5043 69.1566 52.5697 69.5234C52.6351 69.8902 60.2755 72.3578 60.5283 72.1502C60.7792 71.942 61.1629 70.7636 60.9967 70.5796Z" fill="#4A5C6A"/>
<path d="M59.0357 69.8788L58.499 71.678C57.3724 71.346 55.9727 70.8924 54.8163 70.4852L55.3398 68.7303C56.5077 69.0786 57.9142 69.5162 59.0351 69.8807L59.0357 69.8788Z" fill="#4A5C6A"/>
</svg>
