<svg width="111" height="105" viewBox="0 0 111 105" fill="none" xmlns="http://www.w3.org/2000/svg">
<rect width="111" height="105"/>
<path d="M-544.109 -1119.19L179.979 -429.868L-807.989 -268.861L-544.109 -1119.19Z" fill="#9BA8AB" fill-opacity="0.08"/>
<path d="M35.5482 39.3337C27.2817 28.1382 12.3363 20.6704 -4.74507 20.6833C-10.5054 20.6897 -16.0302 21.5456 -21.1377 23.112C-39.1239 28.6182 -51.9558 42.8932 -51.983 59.6194C-52.0146 81.0958 -30.9161 98.4896 -4.85967 98.4669C21.1936 98.4435 42.3441 81.0118 42.3764 59.5321C42.386 52.1317 39.8893 45.2177 35.5482 39.3337ZM-45.6947 72.6593C-49.2758 67.5359 -47.1348 60.9786 -40.9115 58.0127C-34.6863 55.0456 -26.7385 56.7943 -23.1541 61.9184C-19.5698 67.0425 -21.7114 73.6031 -27.934 76.5657C-34.1606 79.5309 -42.1116 77.7815 -45.6959 72.6574L-45.6947 72.6593ZM-7.82992 92.7327C-12.8723 95.1356 -19.3168 93.7166 -22.2202 89.5636C-25.1256 85.4119 -23.3907 80.0986 -18.3477 77.6924C-13.3001 75.2888 -6.85685 76.7059 -3.95539 80.8602C-1.05005 85.012 -2.78488 90.3252 -7.82992 92.7327ZM-20.7716 50.8526C-25.8192 53.2562 -32.2624 51.8391 -35.1639 47.6848C-38.0692 43.5331 -36.3344 38.2199 -31.2881 35.8143C-26.245 33.4081 -19.8005 34.8271 -16.8991 38.9814C-13.9937 43.1332 -15.7285 48.4464 -20.7716 50.8526ZM-9.6864 37.3069C-9.67829 31.388 -3.8481 26.5826 3.33454 26.5752C10.5185 26.5698 16.3297 31.3638 16.3229 37.2846C16.3148 43.2035 10.4846 48.0089 3.30196 48.0162C-3.88069 48.0236 -9.69322 43.2277 -9.6864 37.3069ZM27.1367 84.525C23.5372 89.6546 15.5843 91.4211 9.36651 88.4642C3.1513 85.5112 1.0305 78.9564 4.63007 73.8269C8.22708 68.6934 16.1825 66.9308 22.399 69.8857C28.6135 72.8419 30.7363 79.3955 27.1367 84.525ZM29.5346 62.7352C24.4895 65.1426 18.045 63.7236 15.1436 59.5693C12.2382 55.4176 13.9737 50.1011 19.0181 47.6969C24.0605 45.2939 30.505 46.7129 33.4084 50.8659C36.3138 55.0177 34.5789 60.3309 29.5346 62.7352Z" fill="#28323A"/>
<path d="M47.7031 61.607C47.6676 85.5406 24.0993 104.967 -4.93684 104.994C-33.971 105.02 -57.4806 85.6375 -57.4451 61.7039C-57.4427 59.5708 -56.7411 52.2298 -56.2303 52.9762C-56.0379 53.2558 -55.3701 59.1334 -55.1213 59.7488C-53.3882 64.0654 -50.1429 75.7798 -43.2893 82.6706C-30.9243 95.1037 -11.2629 100.291 -7.78268 100.289C0.711184 100.281 13.6073 98.9623 23.4212 92.4006C30.8771 87.4158 35.5323 78.6417 41.0619 69.5426C43.4691 65.5818 47.7143 53.3568 47.7018 61.6051L47.7031 61.607Z" fill="#2E3840"/>
<path d="M40.3254 36.9694C31.1147 24.4919 14.4573 16.1694 -4.57675 16.1872C-10.9959 16.1931 -17.1532 17.148 -22.8452 18.8904C-42.8854 25.0276 -57.1887 40.9333 -57.2167 59.5745C-57.2523 83.5081 -33.7413 102.893 -4.70719 102.867C24.3257 102.839 47.894 83.4125 47.9308 59.4808C47.9446 51.2345 45.1603 43.5274 40.3234 36.9707L40.3254 36.9694ZM-27.5 74.839C-33.7253 77.8062 -41.675 76.0587 -45.2594 70.9346C-48.8437 65.8105 -46.7028 59.2532 -40.4775 56.286C-38.1643 55.1839 -35.6104 54.7359 -33.1304 54.8625C-33.4978 56.3816 -33.6905 57.9499 -33.6955 59.5534C-33.7011 65.298 -31.2591 70.5645 -27.1786 74.6831C-27.283 74.7407 -27.3912 74.7924 -27.4988 74.841L-27.5 74.839ZM-7.39524 91.0028C-12.4428 93.4064 -18.8828 91.9899 -21.7875 87.835C-23.7747 84.9936 -23.5883 81.601 -21.6518 78.9769C-16.88 81.8141 -11.0135 83.4826 -4.67506 83.4771C-3.81277 83.4773 -2.95863 83.4439 -2.11526 83.3814C-2.08204 86.4124 -3.97962 89.3754 -7.39524 91.0028ZM-30.8114 49.1648C-32.39 48.4283 -33.7554 47.3455 -34.7299 45.9581C-37.6313 41.8038 -35.8978 36.4887 -30.8554 34.0857C-25.8078 31.6821 -19.3678 33.0985 -16.465 37.2548C-16.3851 37.3635 -16.3129 37.4775 -16.2452 37.5888C-22.6162 39.8893 -27.7982 44.0177 -30.8121 49.1681L-30.8114 49.1648ZM-9.25044 35.5789C-9.24167 29.6568 -3.4102 24.8534 3.76922 24.8453C10.9531 24.8399 16.7676 29.6345 16.7595 35.5534C16.7573 37.7589 15.9469 39.8089 14.5582 41.5103C9.44968 37.8095 2.73915 35.5665 -4.60176 35.5751C-6.18166 35.5741 -7.73521 35.6809 -9.24616 35.8822C-9.24671 35.7796 -9.25049 35.6764 -9.2485 35.5776L-9.25044 35.5789ZM27.5746 82.7958C23.9731 87.9266 16.0177 89.6893 9.80246 86.7363C7.4934 85.6401 5.74923 84.0413 4.65395 82.2074C12.869 79.9066 19.44 74.6665 22.5124 68.011C22.6186 68.058 22.7274 68.1088 22.835 68.1577C29.0502 71.1107 31.1729 77.6643 27.5746 82.7958ZM29.9705 61.0072C28.1629 61.8685 26.1728 62.2404 24.2362 62.168C24.3542 61.2917 24.4148 60.4002 24.4187 59.4988C24.428 54.4891 22.5668 49.8422 19.3847 46.0034C19.4074 45.9913 19.4314 45.981 19.456 45.9676C24.5036 43.564 30.9429 44.9837 33.8483 49.1354C36.7536 53.2871 35.0162 58.6049 29.9738 61.0078L29.9705 61.0072Z" fill="#4A5C6A"/>
<path d="M5.60157 59.5195C5.60884 54.8594 1.03222 51.0855 -4.62061 51.0903C-10.2734 51.0952 -14.8619 54.8769 -14.8692 59.5371C-14.8764 64.1973 -10.2998 67.9712 -4.64696 67.9663C1.00587 67.9615 5.59429 64.1797 5.60157 59.5195Z" fill="#6BA8C4"/>
<path d="M2.1501 60.3836C2.91679 60.7473 3.17777 61.5551 2.73403 62.1866C2.29029 62.8181 1.3121 63.0361 0.545415 62.6725C-0.221271 62.3088 -0.482253 61.501 -0.0385122 60.8694C0.405229 60.2379 1.38341 60.0199 2.1501 60.3836Z" fill="#1C2D3A"/>
<path d="M-0.322399 55.0909C0.444335 54.7255 1.42329 54.9411 1.86381 55.5723C2.30434 56.2035 2.04084 57.0114 1.2741 57.3769C0.507368 57.7423 -0.47159 57.5267 -0.912112 56.8955C-1.35263 56.2643 -1.08913 55.4564 -0.322399 55.0909Z" fill="#1C2D3A"/>
<path d="M14.5642 41.5107C12.2261 44.3852 8.25244 46.2796 3.74454 46.2854C-3.31538 46.2927 -9.05221 41.6585 -9.24147 35.8807C-7.72924 35.6813 -6.17569 35.5744 -4.59512 35.5722C2.74901 35.5643 9.45632 37.8067 14.5662 41.5094L14.5642 41.5107Z" fill="#1C2D3A"/>
<path d="M22.5115 68.0085C19.4371 74.6653 12.8675 79.9073 4.65113 82.2062C2.79888 79.1035 2.80075 75.3204 5.06386 72.0945C8.60339 67.0517 16.3459 65.2623 22.5103 68.0066L22.5115 68.0085Z" fill="#11212D"/>
<path d="M24.4134 59.4914C24.4127 60.3935 24.3501 61.2862 24.2289 62.1619C20.7554 62.0352 17.4399 60.4993 15.5742 57.8339C12.6849 53.7023 14.3872 48.416 19.3794 45.996C22.5628 49.8368 24.4208 54.483 24.4146 59.4934L24.4134 59.4914Z" fill="#1C2D3A"/>
<path d="M41.3731 26.5316C31.9628 13.7847 14.9475 5.28311 -4.49858 5.30223C-11.0573 5.30803 -17.3464 6.28298 -23.1608 8.06417C-43.6321 14.3348 -58.2434 30.5823 -58.2724 49.625C-58.2735 50.6025 -58.2353 51.5764 -58.1595 52.5395C-56.376 75.6293 -33.103 93.8766 -4.63012 93.8498C25.0299 93.8209 49.107 73.9763 49.1437 49.5271C49.1447 47.8456 49.0339 46.1848 48.8163 44.5526C48.8201 44.55 48.8176 44.5461 48.8138 44.5403C47.9343 37.9978 45.3226 31.8885 41.3711 26.5329L41.3731 26.5316ZM42.5933 64.4435L24.4713 82.6147L-2.47875 87.2829C-2.47875 87.2829 -35.3408 80.1996 -36.0078 79.6228C-36.6747 79.046 -53.4385 60.6584 -53.4385 60.6584C-53.4385 60.6584 -55.1272 40.8373 -54.0515 38.9911C-52.9757 37.1449 -40.6982 20.3573 -40.6982 20.3573L-16.6968 10.1827L6.82217 7.3218L17.0209 12.7875L35.5734 24.2736L44.8089 43.8394L42.5965 64.4441L42.5933 64.4435Z" fill="#30424F"/>
<path d="M15.6355 28.9124C13.2492 31.8493 9.18802 33.7846 4.58131 33.7887C-2.62975 33.7953 -8.49247 29.063 -8.686 23.16C-7.1408 22.9556 -5.55494 22.847 -3.94078 22.8449C3.56094 22.8391 10.4132 25.1279 15.6343 28.9105L15.6355 28.9124Z" fill="#253745"/>
<path d="M23.7647 55.982C20.6254 62.7816 13.9128 68.1372 5.51976 70.4856C3.626 67.3156 3.62975 63.4505 5.9405 60.1571C9.55638 55.0057 17.4664 53.1783 23.7647 55.982Z" fill="#253745"/>
<path d="M25.712 47.286C25.7106 48.2081 25.6459 49.1188 25.5226 50.0126C21.9755 49.8842 18.5867 48.3131 16.6807 45.5908C13.7293 41.3692 15.4686 35.9695 20.5658 33.4971C23.8177 37.4208 25.7157 42.1659 25.7088 47.2853L25.712 47.286Z" fill="#253745"/>
<path d="M108.816 22.5898L108.814 22.5911C108.655 22.96 108.449 23.2707 108.231 23.5368C107.922 23.9103 107.23 24.5348 106.335 25.2771C104.343 26.9357 101.353 29.1961 99.3647 30.6437C96.4818 32.7414 93.8763 31.7289 93.8763 31.7289C94.3277 33.0041 94.7947 34.9008 95.2506 37.0942C95.5397 38.4874 95.8253 40.0025 96.1023 41.5512C96.2941 42.6354 96.4839 43.7378 96.664 44.8298C96.9508 46.5501 96.7798 48.3379 96.3745 49.9988C96.3712 50.0065 96.3679 50.0143 96.3686 50.0194C96.2934 50.3249 96.2111 50.6239 96.1212 50.9197C96.1153 50.9319 96.1152 50.9403 96.1113 50.9513C96.0081 51.2947 95.8946 51.631 95.7747 51.9576C95.772 51.9621 95.7694 51.9666 95.7674 51.9762C94.8906 54.3621 93.6577 56.245 92.9271 56.8816C92.3896 57.3494 90.7762 58.2303 88.7388 59.2596C85.5182 60.8865 81.2319 62.8782 78.4626 64.1776C77.1826 64.7806 76.1427 65.3119 75.1967 65.723C72.7754 66.7794 70.9636 67.0451 67.2523 65.6751C66.2905 65.3202 62.0692 63.2813 57.9219 60.9097C54.077 58.7093 50.3298 56.208 48.4756 54.921C44.6211 52.2483 35.6282 44.1885 30.6167 40.4572C28.7092 39.0383 26.6185 37.5618 24.8945 36.2141C22.0837 34.0205 19.4257 27.1708 16.6927 28.6271L22.0935 25.9632L23.1687 24.29C23.1687 24.29 27.4323 22.9506 29.224 23.5024C31.6711 24.2573 35.115 23.8218 37.3527 24.7842C41.2267 26.4479 49.4923 33.3305 51.1444 34.7088C52.7984 36.0858 62.8711 44.2643 68.3688 48.6496C73.8665 53.0349 80.7553 55.8201 80.7553 55.8201C81.5836 54.9716 82.2897 51.3512 81.9807 49.2198C81.6717 47.0883 79.3667 39.2744 78.7223 37.5278C78.4733 36.8569 77.9791 35.504 77.4203 33.9851C76.5238 31.5502 75.461 28.6931 74.9823 27.5249C74.6941 26.8241 74.3576 25.5539 74.2229 24.1621C73.9983 21.7858 74.3801 19.0634 76.6565 18.236C76.9984 18.1111 77.3573 17.9612 77.7248 17.7861C81.115 16.1922 85.3183 12.8109 85.6054 12.5774C85.6132 12.5723 85.6171 12.5697 85.621 12.5672C85.5767 12.5295 85.5292 12.4912 85.4823 12.4581C82.7169 10.4015 74.3069 10.8799 74.3069 10.8799L75.2184 9.5092L79.9994 2.29977L81.2838 0.363628C81.2838 0.363628 83.8263 0.156894 87.5667 0.892731C91.3071 1.62857 94.5924 3.50435 98.0724 5.88371C100.967 7.86089 104.356 10.8483 106.645 14.3648C107.005 14.9124 107.339 15.4747 107.648 16.0336C109.425 19.2586 109.392 21.2865 108.816 22.5949L108.816 22.5898Z" fill="#11212D"/>
<path d="M88.7386 59.255C85.518 60.882 81.2317 62.8736 78.4624 64.173C77.1824 64.7761 76.1425 65.3074 75.1965 65.7184C72.9813 65.4983 70.0306 64.8855 66.7336 63.382C59.6413 60.1519 51.7475 54.3854 47.5758 51.5401C42.9806 48.4031 37.96 42.8773 33.2959 39.6187C28.6312 36.3633 23.8091 31.8896 18.8875 30.9488L23.2183 23.5514C25.8614 23.2813 31.6412 24.1609 36.9187 27.7283C43.3313 32.0625 52.7681 39.3042 53.3195 40.2269C53.6827 40.8339 59.1439 45.1764 63.7962 48.8241C66.235 50.7365 69.4691 52.9967 70.9846 53.6968C75.3888 55.7295 80.2009 59.0605 84.6947 59.4063C86.0084 59.5073 87.4126 59.4236 88.7437 59.2544L88.7386 59.255Z" fill="#253745"/>
<path d="M94.4878 46.5005C93.6971 50.3019 94.06 54.4739 90.7299 56.7017C87.5245 58.3771 81.9616 56.2499 81.9616 56.2499C83.324 54.2289 84.824 51.9589 83.8459 46.5554C82.8984 41.3212 78.739 30.9736 77.8666 28.4227C76.9941 25.8717 75.5958 21.7884 76.5412 19.8416C76.8644 19.1753 77.2991 18.4495 77.7314 17.7837C81.1216 16.1898 85.3249 12.8086 85.6121 12.575C85.6199 12.5699 86.5299 11.9432 86.5299 11.9432C86.5299 11.9432 84.2629 14.3618 84.6346 16.6691C85.0076 18.9783 88.3987 26.4586 90.0115 28.9007C91.6224 31.3442 95.2785 42.6992 94.4878 46.5005Z" fill="#253745"/>
<path d="M96.3101 18.1917L89.6244 22.7698C87.8233 19.1937 83.7531 14.5396 87.2373 13.4321C87.7145 13.2795 88.3539 13.0979 89.1016 13.0511C89.8376 13.0036 90.7392 13.106 91.6244 13.425C93.5423 14.1219 94.8534 16.22 96.3101 18.1917Z" fill="#1B2A35"/>
<path d="M91.5504 26.6699C90.8347 25.7773 90.0803 24.6904 89.2952 23.3704C88.6672 22.3143 87.3481 21.3402 86.9317 20.4956C86.1887 18.9892 86.5535 17.8308 86.3063 16.8998C85.6622 14.4797 86.3163 13.7904 86.3163 13.7904C86.5193 13.6791 86.8315 13.5515 87.2225 13.4333C86.931 14.9915 87.1438 17.1251 87.6867 18.6156C88.2302 20.1113 89.9429 23.3921 91.5517 26.6718L91.5504 26.6699Z" fill="#11212D"/>
<path d="M106.785 23.2839C105.337 23.2577 103.315 22.5932 101.236 20.6437L98.8626 20.1105C97.9699 19.3901 96.8937 18.5094 95.737 17.587C92.5791 15.0569 88.8462 12.1872 86.8005 11.2962C83.4882 9.84998 79.8958 9.19485 75.232 9.50641L80.013 2.29699C83.6316 2.09728 89.162 2.16986 94.0346 5.4527C98.6102 8.53024 102.653 12.1034 104.898 15.1338C105.514 15.9588 105.991 16.7437 106.313 17.4698C107.808 20.8522 107.484 22.5348 106.785 23.2839Z" fill="#1D2D39"/>
<path d="M104.898 15.1338C102.251 15.8182 97.9387 15.6287 95.4143 14.023L95.737 17.587C92.5791 15.0569 88.8462 12.1872 86.8005 11.2961C83.4882 9.84997 79.8958 9.19485 75.232 9.50641L80.013 2.29699C83.6316 2.09728 89.162 2.16986 94.0346 5.4527C98.6102 8.53024 102.653 12.1034 104.898 15.1338Z" fill="#253745"/>
<path d="M106.782 23.2866C105.683 23.2665 104.257 22.8804 102.726 21.8459L106.517 17.962C107.772 21.018 107.446 22.5741 106.782 23.2866Z" fill="#1D2D39"/>
<path d="M88.7776 11.6145L93.9734 5.01422L95.7834 5.80997L89.9675 12.1337L88.7776 11.6145Z" fill="#11212D"/>
<path d="M26.2695 36.4137C27.2605 35.397 35.6424 25.8455 35.6424 25.8455L36.9748 26.9416L28.2419 36.7102L26.2695 36.4137Z" fill="#1C2D3A"/>
<path d="M44.2232 49.7775L55.3549 40.9405L56.4847 42.3647L45.8371 51.0808L44.2232 49.7775Z" fill="#11212D"/>
<path d="M64.2451 62.9236L74.9694 55.3202L76.8187 56.4853L65.927 64.1013L64.2451 62.9236Z" fill="#11212D"/>
<path d="M81.6099 56.1362L95.0257 49.6083L94.4305 52.4601L82.4822 57.3515L81.6099 56.1362Z" fill="#123752"/>
<path d="M80.521 39.8366L93.0086 33.2295L93.2696 35.0336L81.1846 41.5148L80.521 39.8366Z" fill="#123752"/>
<path d="M84.6376 37.6691L81.6804 39.2341C81.2668 37.9951 80.8327 36.7419 80.4149 35.5475C81.7059 36.2118 83.1642 36.9523 84.6389 37.671L84.6376 37.6691Z" fill="#1D2D39"/>
<path d="M93.3802 52.8895C92.9302 54.4018 92.1792 55.7365 90.7344 56.704C88.7557 57.6445 85.9717 57.2977 83.8516 56.7896L93.3802 52.8895Z" fill="#1D2D39"/>
<path d="M94.4998 46.5085C94.4952 47.3324 94.4101 47.7585 94.3216 48.3956C94.24 48.9753 94.1829 49.5416 93.9422 50.1425L82.2771 55.8159C83.6339 53.7737 84.8108 50.7923 83.858 46.5634C83.513 45.0344 82.9284 43.0565 82.2542 40.9595L86.6192 38.6211C87.0023 38.8003 87.3815 38.9738 87.7529 39.1439C89.9342 40.135 92.2084 40.7755 94.1264 41.1885C94.5585 43.367 94.506 45.2883 94.5011 46.5104L94.4998 46.5085Z" fill="#1D2D39"/>
<path d="M96.6764 44.8328C96.9632 46.5531 96.7921 48.3409 96.3869 50.0019C96.3836 50.0096 95.9368 51.6116 95.787 51.9606C95.7844 51.9651 95.7818 51.9696 95.7798 51.9793C95.1151 53.5215 93.6865 55.3021 90.7343 56.7052C92.181 55.7364 92.9301 54.4029 93.3801 52.8906L83.8514 56.7907C83.128 56.6157 82.477 56.4235 81.966 56.2533C81.8384 56.2121 81.7185 56.1741 81.6122 56.1355L80.7689 55.8251C81.5973 54.9766 82.3033 51.3562 81.9943 49.2247C81.6853 47.0933 79.3804 39.2793 78.736 37.5328C78.4869 36.8619 77.9928 35.509 77.4339 33.99C78.2158 34.4022 79.2473 34.9478 80.4166 35.5502C80.8344 36.7446 81.2666 37.999 81.6821 39.2367L84.6393 37.6717C85.2952 37.9942 85.9589 38.3116 86.6116 38.6166L82.2466 40.9551C82.9208 43.0521 83.5054 45.03 83.8504 46.5589C84.8051 50.7866 83.6276 53.7712 82.2695 55.8115L93.9347 50.138C94.2219 49.0779 94.4466 47.9143 94.4922 46.504C94.5307 45.2821 94.5509 43.3626 94.1176 41.1821C94.8418 41.3372 95.514 41.4597 96.1127 41.5555C96.3045 42.6398 96.4943 43.7421 96.6745 44.8341L96.6764 44.8328Z" fill="#0E1423"/>
<path d="M83.8523 56.7852L82.4841 57.3434L81.6099 56.1294C81.7181 56.1667 81.8393 56.2066 81.9649 56.2492C82.4759 56.4193 83.1269 56.6115 83.8504 56.7865L83.8523 56.7852Z" fill="#1C2D3A"/>
<path d="M93.009 33.2337L93.27 35.0377L92.615 35.3908L86.6056 38.6139C85.9548 38.3075 85.2911 37.9902 84.6333 37.6689L92.0734 33.7326L93.0103 33.2356L93.009 33.2337Z" fill="#11212D"/>
<path d="M85.1337 17.7438L75.3451 23.4958L75.5169 23.8502L75.7658 24.3598L76.1573 25.1624L76.1593 25.1611L76.5595 24.9256L85.8095 19.4446L85.9301 19.3736L85.5221 18.5373L85.1337 17.7438Z" fill="#11212D"/>
<path d="M86.5327 11.942C85.5547 13.2202 84.0767 14.9554 84.7876 17.3287C82.309 18.9934 78.9403 21.01 76.2776 22.3951C76.1789 21.3803 76.2478 20.425 76.569 19.7683C78.715 18.0137 84.903 13.0312 86.5288 11.9446C86.5307 11.9433 86.5346 11.9407 86.5346 11.9407L86.5327 11.942Z" fill="#374956"/>
<path d="M76.5605 19.7676C76.2412 20.4229 76.1724 21.3782 76.2691 22.3943C75.4989 22.7927 74.7879 23.141 74.1743 23.4084C74.1705 23.2968 74.17 23.1858 74.1683 23.0729C74.1621 22.4953 74.2147 21.9097 74.2987 21.4481C74.4731 21.0856 75.9966 20.1275 76.5605 19.7676Z" fill="#263B4B"/>
<path d="M90.3556 10.9507C87.3297 11.0164 87.0051 13.2197 87.1207 15.6677C86.5269 16.1391 85.7239 16.7122 84.7925 17.3363C84.7167 17.0133 84.6374 16.8038 84.6048 16.3049C84.6036 16.2946 84.6037 16.2862 84.603 16.281C84.4967 14.9874 85.4375 13.1271 86.5375 11.9495C88.4911 10.7334 89.6478 10.9351 90.3556 10.9507Z" fill="#263B4B"/>
<path d="M106.341 25.2821C104.349 26.9407 101.358 29.2011 99.3702 30.6487C98.3807 30.7434 96.9942 30.8794 95.2645 29.964C96.7764 28.0089 99.1468 24.8571 100.425 22.7635C102.355 24.1651 104.641 25.4851 106.341 25.2821Z" fill="#253745"/>
<path d="M100.437 22.7669C99.1599 24.8625 96.7862 28.0136 95.2763 29.9674C94.1759 29.3892 92.9306 28.3832 91.5613 26.6713C91.2601 26.0569 90.9558 25.4419 90.6539 24.8391L97.2757 19.5405C98.0446 20.5817 98.7969 21.5086 99.5176 22.0696C99.8112 22.2994 100.121 22.5325 100.439 22.7656L100.437 22.7669Z" fill="#1B2A35"/>
<path d="M97.7082 19.1838L97.2612 19.5392L90.6395 24.8377C90.2848 24.125 89.9384 23.429 89.606 22.7712L96.2917 18.1931L96.3968 18.1239L97.7101 19.1825L97.7082 19.1838Z" fill="#0E1423"/>
<path d="M95.2606 29.9616C94.4424 31.0204 93.8767 31.7295 93.8767 31.7295C93.2666 30.2387 92.4223 28.4512 91.5456 26.6655C92.9169 28.3761 94.1589 29.3815 95.2606 29.9616Z" fill="#0E1423"/>
<path d="M108.826 22.595L108.824 22.5963C108.579 22.9946 107.83 23.3066 106.782 23.2835C107.446 22.5711 107.774 21.0169 106.517 17.959L102.726 21.8429C102.515 21.7006 102.228 21.514 102.006 21.3594C101.786 21.2035 101.431 20.9779 101.233 20.6434L101.096 20.5531L105.815 16.5148C105.557 16.0722 105.25 15.6094 104.896 15.1354C105.639 14.9415 106.253 14.6824 106.658 14.3655C107.018 14.9131 107.352 15.4754 107.661 16.0344C109.438 19.2594 109.405 21.2873 108.829 22.5957L108.826 22.595Z" fill="#0E1423"/>
<path d="M2.56641 23.436C5.99432 23.0696 24.9137 24.3572 29.2345 23.5033C32.884 22.7824 23.3942 33.2494 23.3942 33.2494L2.56835 23.4348L2.56641 23.436Z" fill="#253745"/>
<path d="M37.3753 26.4981C28.9303 15.0611 13.6605 7.43114 -3.78773 7.44615C-9.67079 7.45256 -15.3159 8.32925 -20.5341 9.92677C-38.908 15.5518 -52.0172 30.1345 -52.0439 47.222C-52.0775 69.1618 -30.5244 86.9326 -3.90595 86.9073C22.7105 86.8834 44.316 69.0745 44.3502 47.1315C44.361 39.5717 41.8098 32.507 37.3753 26.4981ZM-45.6193 60.5452C-49.2765 55.3104 -47.0893 48.6114 -40.7318 45.5823C-34.3737 42.55 -26.2524 44.3376 -22.592 49.5731C-18.9316 54.8085 -21.1175 61.5095 -27.4763 64.5367C-33.837 67.5651 -41.9602 65.7788 -45.6206 60.5433L-45.6193 60.5452ZM-6.93669 81.0515C-12.0893 83.5076 -18.6718 82.0569 -21.6372 77.8139C-24.6046 73.5722 -22.8321 68.1424 -17.6795 65.6863C-12.5236 63.231 -5.94047 64.6784 -2.97701 68.9227C-0.00964816 73.1644 -1.78213 78.5942 -6.93669 81.0515ZM-20.1581 38.2675C-25.3139 40.7228 -31.8971 39.2754 -34.8605 35.0311C-37.8279 30.7894 -36.0554 25.3596 -30.9015 22.9055C-25.7502 20.4475 -19.1658 21.8969 -16.2023 26.1412C-13.2349 30.3829 -15.0074 35.8127 -20.1581 38.2675ZM-8.83241 24.4299C-8.82145 18.3839 -2.86843 13.4726 4.46859 13.4667C11.8056 13.4607 17.7453 18.3565 17.7369 24.4064C17.726 30.4524 11.7729 35.3637 4.43592 35.3697C-2.90176 35.3789 -8.8408 30.4798 -8.83241 24.4299ZM28.7844 72.6674C25.1078 77.9089 16.9828 79.7108 10.6318 76.6913C4.28205 73.6738 2.11639 66.9787 5.79298 61.7373C9.46829 56.4939 17.5945 54.6939 23.9462 57.7102C30.2953 60.7309 32.4629 67.4247 28.7863 72.6662L28.7844 72.6674ZM31.2327 50.4074C26.0795 52.8667 19.495 51.4173 16.5296 47.1743C13.5622 42.9325 15.3334 37.5008 20.4893 35.0454C25.6419 32.5894 32.2244 34.0401 35.1898 38.2831C38.1571 42.5248 36.3847 47.9546 31.2327 50.4074Z" fill="#293A47"/>
<path d="M41.9346 24.1918C32.5237 11.4481 15.5084 2.94652 -3.9358 2.96436C-10.4945 2.97016 -16.7836 3.94511 -22.598 5.7263C-43.0713 11.9982 -57.6826 28.2458 -57.7109 47.2851C-57.7119 48.9667 -57.6024 50.6255 -57.3828 52.2564C-54.4141 74.3659 -31.6889 91.5351 -4.06863 91.51C25.5927 91.483 49.6698 71.6384 49.7052 47.1873C49.709 46.2052 49.67 45.2346 49.593 44.2696C49.5969 44.267 49.5943 44.2631 49.5905 44.2573C49.0266 36.9394 46.2942 30.1081 41.9314 24.1911L41.9346 24.1918ZM39.2318 52.7554L32.9024 68.0245L26.4155 74.8845L9.99691 80.9369L-13.7333 82.3618L-34.9775 72.1574L-45.2674 61.0246L-47.4928 57.5329L-48.2629 47.4511L-40.3359 27.7244L-33.6014 20.4732L-9.75781 11.6826L6.83251 10.788L16.743 15.0018L25.5354 20.8532L34.1768 29.7398L38.8612 38.74L39.2318 52.7554Z" fill="#D2D6D5"/>
<path opacity="0.7" d="M44.5578 45.4735C43.7543 45.4736 41.0874 33.2728 39.7631 31.6676C37.8074 29.298 32.1306 19.4427 24.8471 16.113C17.5637 12.7833 5.69028 8.29169 2.24046 8.10763C-1.20674 7.91906 -19.0154 9.73522 -24.8721 11.8337C-30.7288 13.9321 -43.5899 25.7079 -44.1308 24.8478C-44.6685 23.9884 -40.0329 17.228 -37.1847 14.7385C-35.7183 13.4562 -28.9623 8.53129 -22.6038 5.72414C-16.7895 3.94296 -10.5016 2.96607 -3.93967 2.96093C15.5045 2.94308 32.5198 11.4447 41.93 24.1916C45.1346 31.6639 46.3117 41.6561 44.5572 45.4767L44.5578 45.4735Z" fill="#E1E3E3"/>
<path d="M-3.94477 7.16922C-30.7867 7.19406 -52.5759 25.1518 -52.607 47.2819C-52.628 59.0616 -46.4719 69.6535 -36.6586 76.9757L-36.656 76.9796C-31.6394 80.7187 -25.6686 83.6099 -19.0741 85.3671L-19.0721 85.3658C-14.3453 86.6296 -9.30235 87.3096 -4.06133 87.3028C2.48056 87.2969 8.72262 86.2249 14.4199 84.287C16.2627 83.6615 18.0525 82.9427 19.775 82.143C19.7789 82.1404 19.788 82.1372 19.7926 82.1315C34.5836 75.2468 44.5809 62.1721 44.6041 47.1907C44.6378 25.0645 22.9023 7.14376 -3.9396 7.1686L-3.94477 7.16922ZM39.2271 52.7526L32.8977 68.0217L26.4108 74.8817L9.99223 80.934L-13.738 82.3589L-34.9822 72.1545L-45.2721 61.0218L-47.4975 57.5301L-48.2676 47.4482L-40.3406 27.7216L-33.6061 20.4704L-9.76251 11.6798L6.8278 10.7851L16.7383 14.999L25.5307 20.8504L34.1721 29.737L38.8565 38.7372L39.2271 52.7526Z" fill="#4A5C6A"/>
<path d="M19.7904 82.1293C19.7904 82.1293 19.7787 82.137 19.7728 82.1409C15.0224 84.3517 9.7741 85.9245 4.20776 86.7132C1.51929 87.0967 -1.24409 87.2985 -4.06353 87.3007C-11.9942 87.3077 -19.4834 85.747 -26.0952 82.9715C-29.9398 81.3608 -33.492 79.3379 -36.6563 76.9762L-36.6588 76.9723C-40.0504 72.9764 -44.7325 66.4598 -44.2347 66.1182C-43.9581 65.9279 -30.5289 78.3924 -13.0168 81.7305C-2.48849 83.7373 10.5252 80.6047 18.6708 78.2745C24.463 76.6164 32.4369 68.6581 34.1713 66.6596C34.8278 65.9019 35.7187 66.6791 35.7187 66.6791C36.1897 67.2124 29.8486 77.071 19.7877 82.1339L19.7904 82.1293Z" fill="#4A5C6A"/>
<path d="M-26.6451 11.3431C-26.6451 11.3431 -26.6334 11.3354 -26.6276 11.3315C-21.8092 9.27078 -16.5174 7.86138 -10.9284 7.24705C-8.22894 6.94814 -5.46165 6.8328 -2.64542 6.91902C5.28084 7.15972 12.718 8.9551 19.2385 11.9354C23.0312 13.6664 26.5169 15.8 29.6055 18.2588L29.608 18.2627C32.8735 22.3638 37.3479 29.0227 36.8392 29.352C36.5563 29.5326 23.5272 16.6544 6.12691 12.7697C-4.33316 10.4341 -17.435 13.1572 -25.6524 15.2341C-31.4943 16.7106 -39.7131 24.4155 -41.5065 26.3583C-42.1875 27.0958 -43.0524 26.2903 -43.0524 26.2903C-43.5071 25.7436 -36.86 16.0871 -26.6464 11.3411L-26.6451 11.3431Z" fill="#293A47"/>
<path d="M-3.95557 9.11679C-29.4908 9.13877 -50.2177 26.222 -50.2521 47.2746C-50.2812 68.3265 -29.6046 85.3718 -4.06748 85.3485C21.4677 85.3265 42.1966 68.242 42.2277 47.1888C42.2582 26.1388 21.5816 9.09353 -3.95557 9.11679ZM-8.72091 23.0782C-8.72019 22.9776 -8.7233 22.8711 -8.72258 22.7704C-8.71418 16.7206 -2.75665 11.8119 4.57713 11.8052C11.9122 11.8005 17.8539 16.6951 17.8455 22.7449C17.8416 24.9988 17.0141 27.0907 15.6006 28.8307C13.2143 31.7676 9.15312 33.7029 4.54447 33.7082C-2.6666 33.7148 -8.52804 28.9845 -8.71963 23.0802L-8.72091 23.0782ZM-27.3664 62.8772C-33.7246 65.9095 -41.8458 64.1219 -45.5062 58.8864C-49.1706 53.6535 -46.9807 46.95 -40.62 43.9215C-38.2563 42.7945 -35.6481 42.3358 -33.1151 42.4664C-28.8395 42.697 -24.7782 44.6242 -22.4822 47.9136C-18.8825 53.061 -20.9324 59.6168 -27.0391 62.7174C-27.1448 62.773 -27.255 62.8261 -27.3652 62.8791L-27.3664 62.8772ZM-1.43262 71.6009C-1.39666 74.6996 -3.33798 77.7276 -6.82619 79.3888C-11.982 81.8442 -18.562 80.3974 -21.5287 76.1525C-23.5612 73.2463 -23.3692 69.7861 -21.3903 67.1034C-20.483 65.8662 -19.1938 64.798 -17.569 64.0236C-12.4164 61.5676 -5.83387 63.0183 -2.86846 67.2613C-1.9094 68.6337 -1.44597 70.1265 -1.43262 71.6009ZM-20.0495 36.606C-23.4781 38.2391 -27.5415 38.1444 -30.7494 36.649C-32.3634 35.8968 -33.7603 34.7875 -34.7539 33.3709C-37.72 29.1312 -35.9488 23.6994 -30.7982 21.2447C-25.6423 18.7893 -19.0591 20.2367 -16.0957 24.481C-16.0164 24.593 -15.941 24.7076 -15.8695 24.8247C-13.2221 29.0127 -15.0363 34.2223 -20.0521 36.6105L-20.0495 36.606ZM28.8929 71.006C25.2176 76.2494 17.0914 78.0493 10.7397 75.0331C8.37913 73.9095 6.60095 72.2803 5.47756 70.4037C3.58703 67.2343 3.58883 63.3706 5.89958 60.0771C9.51546 54.9257 17.4242 53.0964 23.7225 55.9001C23.8333 55.9496 23.9434 56.0024 24.0541 56.052C30.4038 59.0695 32.5734 65.762 28.8929 71.006ZM31.3426 48.7479C29.4941 49.6277 27.4639 50.0066 25.4808 49.9314C21.9317 49.8043 18.5461 48.2339 16.6401 45.5116C13.6887 41.2899 15.4268 35.8883 20.5272 33.4166C20.5499 33.4044 20.5771 33.3949 20.5998 33.3827C25.7556 30.9274 32.3349 32.3773 35.3022 36.6191C38.2676 40.8621 36.4939 46.29 31.3426 48.7479Z" fill="#E1E3E3"/>
<path d="M6.45449 47.2278C6.46192 42.4674 1.78637 38.6124 -3.98865 38.6173C-9.76367 38.6223 -14.4513 42.4854 -14.4587 47.2458C-14.4661 52.0062 -9.79059 55.8612 -4.01557 55.8563C1.75946 55.8513 6.44706 51.9882 6.45449 47.2278Z" fill="#D2D6D5"/>
<path d="M-3.99369 38.6124C-9.76887 38.6174 -14.4575 42.4823 -14.4637 47.2423C-14.4644 47.343 -14.449 47.4385 -14.4458 47.5366C-14.2493 42.913 -9.64907 39.2065 -3.99339 39.2022C1.66101 39.196 6.24899 42.8943 6.43424 47.5172C6.43818 47.4172 6.45308 47.3211 6.45186 47.2217C6.45813 42.4617 1.78344 38.6062 -3.99174 38.6112L-3.99369 38.6124Z" fill="#A2ADAD"/>
<path d="M2.94277 48.1089C3.72619 48.4811 3.99223 49.305 3.53869 49.9514C3.08516 50.5977 2.08434 50.8195 1.30287 50.446C0.519448 50.0739 0.25341 49.2499 0.706946 48.6036C1.16048 47.9573 2.1613 47.7355 2.94277 48.1089Z" fill="#06141B"/>
<path d="M0.414092 42.7087C1.19768 42.335 2.19726 42.5565 2.64868 43.2C3.10009 43.8435 2.82935 44.6701 2.04771 45.0426C1.26412 45.4164 0.264543 45.1949 -0.186871 44.5513C-0.638285 43.9078 -0.367548 43.0812 0.414092 42.7087Z" fill="#06141B"/>
<path opacity="0.7" d="M42.2347 47.1895C42.2389 43.7025 41.674 40.3258 40.6138 37.1165C40.4989 44.6919 36.5598 53.3119 28.9155 60.0542C31.2013 63.3281 31.3672 67.4933 28.8999 71.0067C25.2245 76.2501 17.0983 78.05 10.7466 75.0338C8.54508 73.9865 6.85635 72.4931 5.72665 70.7766C3.45078 71.1807 1.06598 71.4617 -1.42829 71.6061C-1.39233 74.7048 -3.33365 77.7328 -6.82186 79.394C-11.9777 81.8494 -18.5576 80.4026 -21.5243 76.1577C-23.4156 73.4535 -23.3767 70.2693 -21.7698 67.6785C-24.186 66.4747 -26.4299 65.0239 -28.4991 63.3635C-34.6604 65.6902 -42.0563 63.8176 -45.5032 58.8897C-48.899 54.0394 -47.265 47.9327 -41.9463 44.6521C-43.7207 40.2347 -44.9451 35.5083 -45.6074 30.6567C-48.57 35.6815 -50.238 41.3209 -50.249 47.2778C-50.2782 68.3298 -29.6016 85.375 -4.06443 85.3518C21.4708 85.3298 42.1997 68.2452 42.2308 47.192L42.2347 47.1895Z" fill="#CCD0CF"/>
<path d="M100.438 22.7642C96.9155 20.324 95.3063 15.4834 92.1275 13.7101C90.835 12.9884 89.2812 12.7726 87.2328 13.4334C87.5109 11.6641 88.5678 11.0993 90.3606 10.9491L90.3645 10.9465C90.4356 10.9526 90.5014 10.951 90.5628 10.9468C90.5667 10.9442 91.4605 10.971 91.9159 11.15C95.4069 12.5286 99.4013 19.9208 101.063 20.5249C101.524 20.6496 101.333 21.2792 100.437 22.7622L100.438 22.7642Z" fill="#0E1423"/>
</svg>
